Coordinates
version=1
nRows=19
nColumns=24
inDegrees=yes

Units are S.I. units (second, meters, Newtons, ...)
If the header above contains a line with 'inDegrees', this indicates whether rotational values are in degrees (yes) or radians (no).

endheader
time	pelvis_tilt	pelvis_list	pelvis_rotation	pelvis_tx	pelvis_ty	pelvis_tz	hip_flexion_r	hip_adduction_r	hip_rotation_r	knee_angle_r	ankle_angle_r	subtalar_angle_r	mtp_angle_r	hip_flexion_l	hip_adduction_l	hip_rotation_l	knee_angle_l	ankle_angle_l	subtalar_angle_l	mtp_angle_l	lumbar_extension	lumbar_bending	lumbar_rotation
      0.99000000	     42.40509862	      2.30210241	     -1.88895033	      0.02461887	      0.54594584	     -0.03280053	     51.07273840	     -3.98403597	      5.53489907	   -109.07978690	     17.04279489	      0.00000000	      0.00000000	     50.78144807	     -2.63558778	     -4.89834638	   -109.51314073	     14.62293509	      0.00000000	      0.00000000	    -58.87847527	     -4.01611456	     -2.27087309
      1.00000000	     42.30180983	      2.28237304	     -1.87888905	      0.02473607	      0.54575993	     -0.03284168	     51.19612037	     -3.97185324	      5.51581464	   -109.09253160	     17.02849357	      0.00000000	      0.00000000	     50.91865441	     -2.64656686	     -4.87211447	   -109.53970568	     14.60675189	      0.00000000	      0.00000000	    -59.14986499	     -3.97686355	     -2.29928137
      1.01000000	     42.18374581	      2.26720789	     -1.86503094	      0.02492279	      0.54558461	     -0.03289155	     51.33236487	     -3.96562788	      5.49800749	   -109.10952784	     17.02677141	      0.00000000	      0.00000000	     51.06425306	     -2.65069767	     -4.85112629	   -109.56743116	     14.60271146	      0.00000000	      0.00000000	    -59.42133871	     -3.94211394	     -2.32667799
      1.02000000	     42.05290956	      2.25878964	     -1.84814391	      0.02519138	      0.54542579	     -0.03294041	     51.47727515	     -3.96770863	      5.48239695	   -109.12989619	     17.03376502	      0.00000000	      0.00000000	     51.21890404	     -2.64943563	     -4.83266054	   -109.59710863	     14.60873441	      0.00000000	      0.00000000	    -59.69072332	     -3.91102872	     -2.35026500
      1.03000000	     41.90270989	      2.25304271	     -1.82700896	      0.02552995	      0.54526829	     -0.03298350	     51.64055730	     -3.97404898	      5.46554871	   -109.15583805	     17.04394798	      0.00000000	      0.00000000	     51.39087099	     -2.64111143	     -4.80905138	   -109.63015332	     14.61939236	      0.00000000	      0.00000000	    -59.96099941	     -3.87713226	     -2.38037818
      1.04000000	     41.74558675	      2.25114687	     -1.80384701	      0.02592661	      0.54512740	     -0.03302518	     51.80488080	     -3.98464302	      5.45223319	   -109.18590860	     17.06330736	      0.00000000	      0.00000000	     51.56644036	     -2.62932251	     -4.78847391	   -109.66440534	     14.64228807	      0.00000000	      0.00000000	    -60.23086099	     -3.84729297	     -2.40027578
      1.05000000	     41.54242933	      2.24475808	     -1.76876671	      0.02643649	      0.54494830	     -0.03306514	     52.01511176	     -3.99256372	      5.42872469	   -109.22178074	     17.07847352	      0.00000000	      0.00000000	     51.79210261	     -2.61026783	     -4.75350582	   -109.70540922	     14.66508915	      0.00000000	      0.00000000	    -60.49560594	     -3.80112846	     -2.45452884
      1.06000000	     41.33541697	      2.23789274	     -1.74035778	      0.02698435	      0.54476664	     -0.03310141	     52.23621754	     -3.99308302	      5.40785880	   -109.25874429	     17.10627767	      0.00000000	      0.00000000	     52.01513485	     -2.58837511	     -4.72453347	   -109.75220123	     14.70214828	      0.00000000	      0.00000000	    -60.77104788	     -3.76181029	     -2.49618380
      1.07000000	     41.10245053	      2.22962308	     -1.71845086	      0.02760667	      0.54459928	     -0.03312027	     52.47023617	     -3.98972085	      5.39091628	   -109.30255830	     17.13223347	      0.00000000	      0.00000000	     52.26555209	     -2.57723457	     -4.68458160	   -109.79963450	     14.74443469	      0.00000000	      0.00000000	    -61.03273807	     -3.72001992	     -2.54957639
      1.08000000	     40.85278853	      2.21942723	     -1.70489964	      0.02829114	      0.54439784	     -0.03310025	     52.73074899	     -3.97319561	      5.37778103	   -109.34649821	     17.16349524	      0.00000000	      0.00000000	     52.53251223	     -2.56849327	     -4.64513856	   -109.85515369	     14.79567365	      0.00000000	      0.00000000	    -61.31810708	     -3.68285130	     -2.59713816
      1.09000000	     40.35240448	      2.14461235	     -1.67902608	      0.02923619	      0.54385310	     -0.03308429	     53.27675144	     -3.89682850	      5.30723908	   -109.40136500	     17.12843609	      0.00000000	      0.00000000	     53.11013431	     -2.60800069	     -4.53603629	   -109.94821386	     14.80387247	      0.00000000	      0.00000000	    -61.29669109	     -3.59598856	     -2.93442162
      1.10000000	     40.13575443	      2.15381123	     -1.68614002	      0.02994137	      0.54371551	     -0.03305539	     53.49729403	     -3.87504845	      5.32762583	   -109.45190899	     17.18374493	      0.00000000	      0.00000000	     53.32511717	     -2.58381917	     -4.51987931	   -109.99938734	     14.87177318	      0.00000000	      0.00000000	    -61.68964070	     -3.59240129	     -2.92104419
      1.11000000	     39.72617958	      2.12055901	     -1.71117316	      0.03083818	      0.54331071	     -0.03296570	     53.94605836	     -3.78870252	      5.32613950	   -109.50880107	     17.17244341	      0.00000000	      0.00000000	     53.77574372	     -2.61566322	     -4.46670656	   -110.08306026	     14.91978686	      0.00000000	      0.00000000	    -61.88551671	     -3.58658034	     -3.06531785
      1.12000000	     39.48326102	      2.13097989	     -1.72212399	      0.03160325	      0.54314586	     -0.03289915	     54.19780138	     -3.76107257	      5.34812056	   -109.56811592	     17.23497116	      0.00000000	      0.00000000	     54.01677550	     -2.58633428	     -4.43929312	   -110.13573009	     14.99610551	      0.00000000	      0.00000000	    -62.33981566	     -3.58820591	     -3.02330822
      1.13000000	     39.17098272	      2.12266620	     -1.75036301	      0.03242563	      0.54287911	     -0.03282585	     54.53755116	     -3.70555301	      5.35959872	   -109.62837066	     17.27196418	      0.00000000	      0.00000000	     54.33972983	     -2.58346965	     -4.40659091	   -110.19789076	     15.07378809	      0.00000000	      0.00000000	    -62.77034847	     -3.60190780	     -2.99576461
      1.14000000	     38.85973708	      2.12396920	     -1.77833273	      0.03329850	      0.54256826	     -0.03266056	     54.87511640	     -3.63731203	      5.38768779	   -109.70253124	     17.31680484	      0.00000000	      0.00000000	     54.66680104	     -2.56476220	     -4.35207327	   -110.27331181	     15.15557790	      0.00000000	      0.00000000	    -63.23831208	     -3.62255744	     -2.94815287
      1.15000000	     38.50209341	      2.11206895	     -1.81391198	      0.03418647	      0.54219719	     -0.03253506	     55.27028735	     -3.56419584	      5.40307119	   -109.77550506	     17.35637885	      0.00000000	      0.00000000	     55.04623180	     -2.56359457	     -4.30148574	   -110.35258033	     15.24402953	      0.00000000	      0.00000000	    -63.72779639	     -3.65530138	     -2.89022355
      1.16000000	     37.75263753	      2.01018553	     -1.89344577	      0.03544909	      0.54121636	     -0.03219546	     56.13072036	     -3.33692136	      5.36136921	   -109.85891183	     17.26350264	      0.00000000	      0.00000000	     55.90476970	     -2.70946414	     -4.18701844	   -110.48627284	     15.27891148	      0.00000000	      0.00000000	    -63.71096396	     -3.70465981	     -2.85000301
      1.17000000	     37.26343932	      1.97746025	     -1.91443323	      0.03648921	      0.54058702	     -0.03207917	     56.67694390	     -3.25796377	      5.34031623	   -109.93639893	     17.30083848	      0.00000000	      0.00000000	     56.45822183	     -2.70240519	     -4.09214610	   -110.60019274	     15.36556286	      0.00000000	      0.00000000	    -64.10662708	     -3.71132231	     -2.63988274
